<mxfile host="app.diagrams.net" modified="2023-03-03T15:52:41.957Z" agent="5.0 (Windows NT 10.0; Win64; x64) AppleWebKit/537.36 (KHTML, like Gecko) Chrome/110.0.0.0 Safari/537.36" etag="AEcQxAntyDkNDmIqG4aP" version="20.8.23" type="github">
  <diagram id="C5RBs43oDa-KdzZeNtuy" name="Page-1">
    <mxGraphModel dx="1793" dy="859" grid="1" gridSize="10" guides="1" tooltips="1" connect="1" arrows="1" fold="1" page="1" pageScale="1" pageWidth="827" pageHeight="1169" background="none" math="0" shadow="0">
      <root>
        <mxCell id="WIyWlLk6GJQsqaUBKTNV-0" />
        <mxCell id="WIyWlLk6GJQsqaUBKTNV-1" parent="WIyWlLk6GJQsqaUBKTNV-0" />
        <mxCell id="dLMQJUKiDlXVM5kgYUkp-5" style="edgeStyle=orthogonalEdgeStyle;rounded=0;orthogonalLoop=1;jettySize=auto;html=1;exitX=0;exitY=0.5;exitDx=0;exitDy=0;entryX=0.5;entryY=0;entryDx=0;entryDy=0;entryPerimeter=0;fontSize=13;fontFamily=Verdana;" edge="1" parent="WIyWlLk6GJQsqaUBKTNV-1" source="WIyWlLk6GJQsqaUBKTNV-6" target="dLMQJUKiDlXVM5kgYUkp-4">
          <mxGeometry relative="1" as="geometry" />
        </mxCell>
        <mxCell id="dLMQJUKiDlXVM5kgYUkp-6" value="Reset" style="edgeLabel;html=1;align=center;verticalAlign=middle;resizable=0;points=[];fontSize=13;fontFamily=Verdana;" vertex="1" connectable="0" parent="dLMQJUKiDlXVM5kgYUkp-5">
          <mxGeometry x="0.3271" y="-1" relative="1" as="geometry">
            <mxPoint x="14" y="1" as="offset" />
          </mxGeometry>
        </mxCell>
        <mxCell id="dLMQJUKiDlXVM5kgYUkp-9" style="edgeStyle=orthogonalEdgeStyle;rounded=0;orthogonalLoop=1;jettySize=auto;html=1;exitX=1;exitY=0.5;exitDx=0;exitDy=0;entryX=0;entryY=0.5;entryDx=0;entryDy=0;fontSize=13;fontFamily=Verdana;" edge="1" parent="WIyWlLk6GJQsqaUBKTNV-1" source="WIyWlLk6GJQsqaUBKTNV-6" target="dLMQJUKiDlXVM5kgYUkp-8">
          <mxGeometry relative="1" as="geometry">
            <Array as="points">
              <mxPoint x="509" y="344" />
              <mxPoint x="509" y="344" />
            </Array>
          </mxGeometry>
        </mxCell>
        <mxCell id="dLMQJUKiDlXVM5kgYUkp-10" value="Exit" style="edgeLabel;html=1;align=center;verticalAlign=middle;resizable=0;points=[];fontSize=13;fontFamily=Verdana;" vertex="1" connectable="0" parent="dLMQJUKiDlXVM5kgYUkp-9">
          <mxGeometry x="0.2833" y="3" relative="1" as="geometry">
            <mxPoint x="-17" y="3" as="offset" />
          </mxGeometry>
        </mxCell>
        <mxCell id="dLMQJUKiDlXVM5kgYUkp-15" style="edgeStyle=orthogonalEdgeStyle;rounded=0;orthogonalLoop=1;jettySize=auto;html=1;exitX=0.5;exitY=1;exitDx=0;exitDy=0;entryX=0.5;entryY=0;entryDx=0;entryDy=0;fontSize=13;fontFamily=Verdana;" edge="1" parent="WIyWlLk6GJQsqaUBKTNV-1" source="WIyWlLk6GJQsqaUBKTNV-6" target="dLMQJUKiDlXVM5kgYUkp-14">
          <mxGeometry relative="1" as="geometry">
            <Array as="points">
              <mxPoint x="389" y="439" />
              <mxPoint x="389" y="439" />
            </Array>
          </mxGeometry>
        </mxCell>
        <mxCell id="dLMQJUKiDlXVM5kgYUkp-16" value="Create Inventory" style="edgeLabel;html=1;align=center;verticalAlign=middle;resizable=0;points=[];fontSize=13;fontFamily=Verdana;" vertex="1" connectable="0" parent="dLMQJUKiDlXVM5kgYUkp-15">
          <mxGeometry x="0.25" y="-4" relative="1" as="geometry">
            <mxPoint x="4" y="-22" as="offset" />
          </mxGeometry>
        </mxCell>
        <mxCell id="WIyWlLk6GJQsqaUBKTNV-6" value="Next menu?" style="rhombus;whiteSpace=wrap;html=1;shadow=0;fontFamily=Verdana;fontSize=13;align=center;strokeWidth=1;spacing=6;spacingTop=-4;fillColor=#e3c800;fontColor=#000000;strokeColor=#B09500;" parent="WIyWlLk6GJQsqaUBKTNV-1" vertex="1">
          <mxGeometry x="339" y="319" width="100" height="50" as="geometry" />
        </mxCell>
        <mxCell id="dLMQJUKiDlXVM5kgYUkp-2" style="edgeStyle=orthogonalEdgeStyle;rounded=0;orthogonalLoop=1;jettySize=auto;html=1;exitX=0;exitY=0;exitDx=58.75;exitDy=40;exitPerimeter=0;entryX=0.5;entryY=0;entryDx=0;entryDy=0;fontSize=13;fontFamily=Verdana;" edge="1" parent="WIyWlLk6GJQsqaUBKTNV-1" source="dLMQJUKiDlXVM5kgYUkp-1" target="WIyWlLk6GJQsqaUBKTNV-6">
          <mxGeometry relative="1" as="geometry" />
        </mxCell>
        <mxCell id="dLMQJUKiDlXVM5kgYUkp-1" value="Home Screen" style="shape=display;whiteSpace=wrap;html=1;fontSize=13;fontFamily=Verdana;fillColor=#d80073;fontColor=#ffffff;strokeColor=#A50040;" vertex="1" parent="WIyWlLk6GJQsqaUBKTNV-1">
          <mxGeometry x="329" y="249" width="110" height="40" as="geometry" />
        </mxCell>
        <mxCell id="dLMQJUKiDlXVM5kgYUkp-61" style="edgeStyle=orthogonalEdgeStyle;rounded=0;orthogonalLoop=1;jettySize=auto;html=1;exitX=0;exitY=0.5;exitDx=0;exitDy=0;exitPerimeter=0;" edge="1" parent="WIyWlLk6GJQsqaUBKTNV-1" source="dLMQJUKiDlXVM5kgYUkp-4">
          <mxGeometry relative="1" as="geometry">
            <mxPoint x="380" y="300" as="targetPoint" />
            <Array as="points">
              <mxPoint x="206" y="398" />
              <mxPoint x="206" y="300" />
            </Array>
          </mxGeometry>
        </mxCell>
        <mxCell id="dLMQJUKiDlXVM5kgYUkp-4" value="Clear All Documents" style="strokeWidth=2;html=1;shape=mxgraph.flowchart.multi-document;whiteSpace=wrap;fontSize=13;fontFamily=Verdana;fillColor=#6a00ff;fontColor=#ffffff;strokeColor=#3700CC;fillStyle=auto;" vertex="1" parent="WIyWlLk6GJQsqaUBKTNV-1">
          <mxGeometry x="226" y="367.75" width="88" height="60" as="geometry" />
        </mxCell>
        <mxCell id="dLMQJUKiDlXVM5kgYUkp-53" style="edgeStyle=orthogonalEdgeStyle;rounded=0;orthogonalLoop=1;jettySize=auto;html=1;exitX=0.5;exitY=1;exitDx=0;exitDy=0;entryX=0;entryY=0;entryDx=58.75;entryDy=0;entryPerimeter=0;fontSize=13;fontFamily=Verdana;" edge="1" parent="WIyWlLk6GJQsqaUBKTNV-1" source="dLMQJUKiDlXVM5kgYUkp-7" target="dLMQJUKiDlXVM5kgYUkp-1">
          <mxGeometry relative="1" as="geometry" />
        </mxCell>
        <mxCell id="dLMQJUKiDlXVM5kgYUkp-7" value="Start" style="ellipse;whiteSpace=wrap;html=1;fontSize=13;fontFamily=Verdana;fillColor=#60a917;fontColor=#ffffff;strokeColor=#2D7600;" vertex="1" parent="WIyWlLk6GJQsqaUBKTNV-1">
          <mxGeometry x="332.5" y="199" width="110" height="30" as="geometry" />
        </mxCell>
        <mxCell id="dLMQJUKiDlXVM5kgYUkp-8" value="End" style="ellipse;whiteSpace=wrap;html=1;fontSize=13;fontFamily=Verdana;fillColor=#e51400;fontColor=#ffffff;strokeColor=#B20000;" vertex="1" parent="WIyWlLk6GJQsqaUBKTNV-1">
          <mxGeometry x="519" y="329" width="110" height="30" as="geometry" />
        </mxCell>
        <mxCell id="dLMQJUKiDlXVM5kgYUkp-19" style="edgeStyle=orthogonalEdgeStyle;rounded=0;orthogonalLoop=1;jettySize=auto;html=1;exitX=0;exitY=0.5;exitDx=0;exitDy=0;entryX=0.5;entryY=0;entryDx=0;entryDy=0;fontSize=13;fontFamily=Verdana;" edge="1" parent="WIyWlLk6GJQsqaUBKTNV-1" source="dLMQJUKiDlXVM5kgYUkp-14" target="dLMQJUKiDlXVM5kgYUkp-17">
          <mxGeometry relative="1" as="geometry">
            <Array as="points">
              <mxPoint x="279" y="454" />
            </Array>
          </mxGeometry>
        </mxCell>
        <mxCell id="dLMQJUKiDlXVM5kgYUkp-22" value="Car" style="edgeLabel;html=1;align=center;verticalAlign=middle;resizable=0;points=[];fontSize=13;fontFamily=Verdana;" vertex="1" connectable="0" parent="dLMQJUKiDlXVM5kgYUkp-19">
          <mxGeometry x="0.2818" relative="1" as="geometry">
            <mxPoint x="30" y="-8" as="offset" />
          </mxGeometry>
        </mxCell>
        <mxCell id="dLMQJUKiDlXVM5kgYUkp-20" style="edgeStyle=orthogonalEdgeStyle;rounded=0;orthogonalLoop=1;jettySize=auto;html=1;exitX=1;exitY=0.5;exitDx=0;exitDy=0;entryX=0.5;entryY=0;entryDx=0;entryDy=0;fontSize=13;fontFamily=Verdana;" edge="1" parent="WIyWlLk6GJQsqaUBKTNV-1" source="dLMQJUKiDlXVM5kgYUkp-14" target="dLMQJUKiDlXVM5kgYUkp-18">
          <mxGeometry relative="1" as="geometry" />
        </mxCell>
        <mxCell id="dLMQJUKiDlXVM5kgYUkp-23" value="Hotel" style="edgeLabel;html=1;align=center;verticalAlign=middle;resizable=0;points=[];fontSize=13;fontFamily=Verdana;" vertex="1" connectable="0" parent="dLMQJUKiDlXVM5kgYUkp-20">
          <mxGeometry x="0.2409" y="1" relative="1" as="geometry">
            <mxPoint x="-27" y="1" as="offset" />
          </mxGeometry>
        </mxCell>
        <mxCell id="dLMQJUKiDlXVM5kgYUkp-25" style="edgeStyle=orthogonalEdgeStyle;rounded=0;orthogonalLoop=1;jettySize=auto;html=1;entryX=0.5;entryY=0;entryDx=0;entryDy=0;exitX=0.5;exitY=0.88;exitDx=0;exitDy=0;exitPerimeter=0;fontSize=13;fontFamily=Verdana;" edge="1" parent="WIyWlLk6GJQsqaUBKTNV-1" source="dLMQJUKiDlXVM5kgYUkp-32" target="dLMQJUKiDlXVM5kgYUkp-24">
          <mxGeometry relative="1" as="geometry">
            <mxPoint x="388" y="559" as="sourcePoint" />
            <Array as="points">
              <mxPoint x="388" y="599" />
              <mxPoint x="384" y="599" />
            </Array>
          </mxGeometry>
        </mxCell>
        <mxCell id="dLMQJUKiDlXVM5kgYUkp-33" style="edgeStyle=orthogonalEdgeStyle;rounded=0;orthogonalLoop=1;jettySize=auto;html=1;exitX=0.5;exitY=1;exitDx=0;exitDy=0;entryX=0.5;entryY=0;entryDx=0;entryDy=0;entryPerimeter=0;fontSize=13;fontFamily=Verdana;" edge="1" parent="WIyWlLk6GJQsqaUBKTNV-1" source="dLMQJUKiDlXVM5kgYUkp-14" target="dLMQJUKiDlXVM5kgYUkp-32">
          <mxGeometry relative="1" as="geometry" />
        </mxCell>
        <mxCell id="dLMQJUKiDlXVM5kgYUkp-34" value="Flight" style="edgeLabel;html=1;align=center;verticalAlign=middle;resizable=0;points=[];fontSize=13;fontFamily=Verdana;" vertex="1" connectable="0" parent="dLMQJUKiDlXVM5kgYUkp-33">
          <mxGeometry x="0.3056" y="2" relative="1" as="geometry">
            <mxPoint x="-1" y="-16" as="offset" />
          </mxGeometry>
        </mxCell>
        <mxCell id="dLMQJUKiDlXVM5kgYUkp-14" value="Inventory Type?" style="rhombus;whiteSpace=wrap;html=1;shadow=0;fontFamily=Verdana;fontSize=13;align=center;strokeWidth=1;spacing=6;spacingTop=-4;fillColor=#e3c800;fontColor=#000000;strokeColor=#B09500;" vertex="1" parent="WIyWlLk6GJQsqaUBKTNV-1">
          <mxGeometry x="337.5" y="419" width="100" height="70" as="geometry" />
        </mxCell>
        <mxCell id="dLMQJUKiDlXVM5kgYUkp-17" value="Car Interactions&lt;br style=&quot;font-size: 13px;&quot;&gt;[Possible Future Addition]" style="rounded=0;whiteSpace=wrap;html=1;fillColor=#bac8d3;strokeColor=#23445d;fillStyle=hatch;fontSize=13;fontFamily=Verdana;" vertex="1" parent="WIyWlLk6GJQsqaUBKTNV-1">
          <mxGeometry x="219" y="499" width="120" height="52.5" as="geometry" />
        </mxCell>
        <mxCell id="dLMQJUKiDlXVM5kgYUkp-18" value="Hotel Interactions&lt;br style=&quot;font-size: 13px;&quot;&gt;[Possible Future Addition]" style="rounded=0;whiteSpace=wrap;html=1;fillColor=#bac8d3;strokeColor=#23445d;fillStyle=hatch;fontSize=13;fontFamily=Verdana;" vertex="1" parent="WIyWlLk6GJQsqaUBKTNV-1">
          <mxGeometry x="459" y="499" width="120" height="52.5" as="geometry" />
        </mxCell>
        <mxCell id="dLMQJUKiDlXVM5kgYUkp-35" style="edgeStyle=orthogonalEdgeStyle;rounded=0;orthogonalLoop=1;jettySize=auto;html=1;exitX=1;exitY=0.5;exitDx=0;exitDy=0;entryX=0;entryY=0.5;entryDx=0;entryDy=0;entryPerimeter=0;fontSize=13;fontFamily=Verdana;" edge="1" parent="WIyWlLk6GJQsqaUBKTNV-1" source="dLMQJUKiDlXVM5kgYUkp-24" target="dLMQJUKiDlXVM5kgYUkp-29">
          <mxGeometry relative="1" as="geometry" />
        </mxCell>
        <mxCell id="dLMQJUKiDlXVM5kgYUkp-36" value="View Flights" style="edgeLabel;html=1;align=center;verticalAlign=middle;resizable=0;points=[];fontSize=13;fontFamily=Verdana;" vertex="1" connectable="0" parent="dLMQJUKiDlXVM5kgYUkp-35">
          <mxGeometry x="-0.2878" relative="1" as="geometry">
            <mxPoint x="10" as="offset" />
          </mxGeometry>
        </mxCell>
        <mxCell id="dLMQJUKiDlXVM5kgYUkp-37" style="edgeStyle=orthogonalEdgeStyle;rounded=0;orthogonalLoop=1;jettySize=auto;html=1;exitX=0;exitY=0.5;exitDx=0;exitDy=0;entryX=0.5;entryY=0;entryDx=0;entryDy=0;fontSize=13;fontFamily=Verdana;" edge="1" parent="WIyWlLk6GJQsqaUBKTNV-1" source="dLMQJUKiDlXVM5kgYUkp-24" target="dLMQJUKiDlXVM5kgYUkp-27">
          <mxGeometry relative="1" as="geometry" />
        </mxCell>
        <mxCell id="dLMQJUKiDlXVM5kgYUkp-38" value="Create Airplane" style="edgeLabel;html=1;align=center;verticalAlign=middle;resizable=0;points=[];fontSize=13;fontFamily=Verdana;" vertex="1" connectable="0" parent="dLMQJUKiDlXVM5kgYUkp-37">
          <mxGeometry x="0.2071" y="1" relative="1" as="geometry">
            <mxPoint x="19" y="-1" as="offset" />
          </mxGeometry>
        </mxCell>
        <mxCell id="dLMQJUKiDlXVM5kgYUkp-43" style="edgeStyle=orthogonalEdgeStyle;rounded=0;orthogonalLoop=1;jettySize=auto;html=1;exitX=0.5;exitY=1;exitDx=0;exitDy=0;entryX=0.5;entryY=0;entryDx=0;entryDy=0;fontSize=13;fontFamily=Verdana;" edge="1" parent="WIyWlLk6GJQsqaUBKTNV-1" source="dLMQJUKiDlXVM5kgYUkp-24" target="dLMQJUKiDlXVM5kgYUkp-42">
          <mxGeometry relative="1" as="geometry" />
        </mxCell>
        <mxCell id="dLMQJUKiDlXVM5kgYUkp-48" value="Create Flight" style="edgeLabel;html=1;align=center;verticalAlign=middle;resizable=0;points=[];fontSize=13;fontFamily=Verdana;" vertex="1" connectable="0" parent="dLMQJUKiDlXVM5kgYUkp-43">
          <mxGeometry x="-0.2963" y="2" relative="1" as="geometry">
            <mxPoint as="offset" />
          </mxGeometry>
        </mxCell>
        <mxCell id="dLMQJUKiDlXVM5kgYUkp-49" style="edgeStyle=orthogonalEdgeStyle;rounded=0;orthogonalLoop=1;jettySize=auto;html=1;exitX=1;exitY=0;exitDx=0;exitDy=0;entryX=1;entryY=0.5;entryDx=0;entryDy=0;entryPerimeter=0;fontSize=13;fontFamily=Verdana;" edge="1" parent="WIyWlLk6GJQsqaUBKTNV-1" source="dLMQJUKiDlXVM5kgYUkp-24" target="dLMQJUKiDlXVM5kgYUkp-1">
          <mxGeometry relative="1" as="geometry">
            <mxPoint x="719" y="349" as="targetPoint" />
            <Array as="points">
              <mxPoint x="408" y="669" />
              <mxPoint x="649" y="669" />
              <mxPoint x="649" y="269" />
            </Array>
          </mxGeometry>
        </mxCell>
        <mxCell id="dLMQJUKiDlXVM5kgYUkp-50" value="Return" style="edgeLabel;html=1;align=center;verticalAlign=middle;resizable=0;points=[];fontSize=13;fontFamily=Verdana;" vertex="1" connectable="0" parent="dLMQJUKiDlXVM5kgYUkp-49">
          <mxGeometry x="-0.7721" y="-2" relative="1" as="geometry">
            <mxPoint x="-31" y="-2" as="offset" />
          </mxGeometry>
        </mxCell>
        <mxCell id="dLMQJUKiDlXVM5kgYUkp-24" value="Flight Interactions?" style="rhombus;whiteSpace=wrap;html=1;fillStyle=auto;fontSize=13;fontFamily=Verdana;fillColor=#e3c800;fontColor=#000000;strokeColor=#B09500;" vertex="1" parent="WIyWlLk6GJQsqaUBKTNV-1">
          <mxGeometry x="336.5" y="669" width="95" height="80" as="geometry" />
        </mxCell>
        <mxCell id="dLMQJUKiDlXVM5kgYUkp-54" style="edgeStyle=orthogonalEdgeStyle;rounded=0;orthogonalLoop=1;jettySize=auto;html=1;exitX=0.5;exitY=1;exitDx=0;exitDy=0;entryX=0.5;entryY=0;entryDx=0;entryDy=0;fontSize=13;fontFamily=Verdana;" edge="1" parent="WIyWlLk6GJQsqaUBKTNV-1" source="dLMQJUKiDlXVM5kgYUkp-27" target="dLMQJUKiDlXVM5kgYUkp-39">
          <mxGeometry relative="1" as="geometry" />
        </mxCell>
        <mxCell id="dLMQJUKiDlXVM5kgYUkp-27" value="Input Airplane Data" style="shape=parallelogram;perimeter=parallelogramPerimeter;whiteSpace=wrap;html=1;fixedSize=1;fillStyle=auto;fontSize=13;fontFamily=Verdana;fillColor=#1ba1e2;fontColor=#ffffff;strokeColor=#006EAF;" vertex="1" parent="WIyWlLk6GJQsqaUBKTNV-1">
          <mxGeometry x="173.5" y="759" width="159" height="40" as="geometry" />
        </mxCell>
        <mxCell id="dLMQJUKiDlXVM5kgYUkp-62" style="edgeStyle=orthogonalEdgeStyle;rounded=0;orthogonalLoop=1;jettySize=auto;html=1;exitX=1;exitY=0.5;exitDx=0;exitDy=0;exitPerimeter=0;" edge="1" parent="WIyWlLk6GJQsqaUBKTNV-1" source="dLMQJUKiDlXVM5kgYUkp-29">
          <mxGeometry relative="1" as="geometry">
            <mxPoint x="390" y="630" as="targetPoint" />
            <Array as="points">
              <mxPoint x="640" y="709" />
              <mxPoint x="640" y="630" />
            </Array>
          </mxGeometry>
        </mxCell>
        <mxCell id="dLMQJUKiDlXVM5kgYUkp-29" value="Display Flights" style="shape=display;whiteSpace=wrap;html=1;fontSize=13;fontFamily=Verdana;fillColor=#d80073;fontColor=#ffffff;strokeColor=#A50040;" vertex="1" parent="WIyWlLk6GJQsqaUBKTNV-1">
          <mxGeometry x="519" y="689" width="110" height="40" as="geometry" />
        </mxCell>
        <mxCell id="dLMQJUKiDlXVM5kgYUkp-32" value="Load Flights and Airplanes" style="strokeWidth=2;html=1;shape=mxgraph.flowchart.multi-document;whiteSpace=wrap;fontSize=13;fontFamily=Verdana;fillStyle=auto;fillColor=#6a00ff;fontColor=#ffffff;strokeColor=#3700CC;" vertex="1" parent="WIyWlLk6GJQsqaUBKTNV-1">
          <mxGeometry x="327.25" y="559" width="113.5" height="60" as="geometry" />
        </mxCell>
        <mxCell id="dLMQJUKiDlXVM5kgYUkp-55" style="edgeStyle=orthogonalEdgeStyle;rounded=0;orthogonalLoop=1;jettySize=auto;html=1;exitX=0;exitY=0.5;exitDx=0;exitDy=0;fontSize=13;fontFamily=Verdana;" edge="1" parent="WIyWlLk6GJQsqaUBKTNV-1" source="dLMQJUKiDlXVM5kgYUkp-39">
          <mxGeometry relative="1" as="geometry">
            <mxPoint x="379" y="649" as="targetPoint" />
            <Array as="points">
              <mxPoint x="159" y="859" />
              <mxPoint x="159" y="649" />
              <mxPoint x="369" y="649" />
            </Array>
          </mxGeometry>
        </mxCell>
        <mxCell id="dLMQJUKiDlXVM5kgYUkp-39" value="Save new Airplane" style="shape=document;whiteSpace=wrap;html=1;boundedLbl=1;fillStyle=auto;fontSize=13;fontFamily=Verdana;fillColor=#6a00ff;fontColor=#ffffff;strokeColor=#3700CC;" vertex="1" parent="WIyWlLk6GJQsqaUBKTNV-1">
          <mxGeometry x="209" y="834" width="90" height="50" as="geometry" />
        </mxCell>
        <mxCell id="dLMQJUKiDlXVM5kgYUkp-45" style="edgeStyle=orthogonalEdgeStyle;rounded=0;orthogonalLoop=1;jettySize=auto;html=1;exitX=0.5;exitY=1;exitDx=0;exitDy=0;entryX=0.5;entryY=0;entryDx=0;entryDy=0;fontSize=13;fontFamily=Verdana;" edge="1" parent="WIyWlLk6GJQsqaUBKTNV-1" source="dLMQJUKiDlXVM5kgYUkp-42" target="dLMQJUKiDlXVM5kgYUkp-44">
          <mxGeometry relative="1" as="geometry" />
        </mxCell>
        <mxCell id="dLMQJUKiDlXVM5kgYUkp-42" value="Input Flight Data" style="shape=parallelogram;perimeter=parallelogramPerimeter;whiteSpace=wrap;html=1;fixedSize=1;fillStyle=auto;fontSize=13;fontFamily=Verdana;fillColor=#1ba1e2;fontColor=#ffffff;strokeColor=#006EAF;" vertex="1" parent="WIyWlLk6GJQsqaUBKTNV-1">
          <mxGeometry x="314" y="839" width="140" height="40" as="geometry" />
        </mxCell>
        <mxCell id="dLMQJUKiDlXVM5kgYUkp-46" style="edgeStyle=orthogonalEdgeStyle;rounded=0;orthogonalLoop=1;jettySize=auto;html=1;exitX=1;exitY=0.5;exitDx=0;exitDy=0;fontSize=13;fontFamily=Verdana;" edge="1" parent="WIyWlLk6GJQsqaUBKTNV-1" source="dLMQJUKiDlXVM5kgYUkp-44">
          <mxGeometry relative="1" as="geometry">
            <mxPoint x="389" y="649" as="targetPoint" />
            <Array as="points">
              <mxPoint x="429" y="939" />
              <mxPoint x="669" y="939" />
              <mxPoint x="669" y="649" />
            </Array>
          </mxGeometry>
        </mxCell>
        <mxCell id="dLMQJUKiDlXVM5kgYUkp-44" value="Save new Flight" style="shape=document;whiteSpace=wrap;html=1;boundedLbl=1;fillStyle=auto;fontSize=13;fontFamily=Verdana;fillColor=#6a00ff;fontColor=#ffffff;strokeColor=#3700CC;" vertex="1" parent="WIyWlLk6GJQsqaUBKTNV-1">
          <mxGeometry x="339" y="919" width="90" height="50" as="geometry" />
        </mxCell>
      </root>
    </mxGraphModel>
  </diagram>
</mxfile>
